PLOT

Based on Martin McGartland's shocking real life story. Martin is a young lad from west
Belfast in the late 1980s who is recruited by the British Police to spy on the IRA..
 
http://www.imdb.com/title/tt1097643/

Encoded By .......: BigPerm1828
Runtime ..........: 1h 57mn
File Size ........: 1.34 GB
Resolution .......: 704x396
IMDb URL .........: http://www.imdb.com/title/tt1097643/
Language .........: English
Video
ID : 0
Format : MPEG-4 Visual
Format profile : Advanced Simple@L5
Format settings, BVOP : Yes
Format settings, QPel : No
Format settings, GMC : No warppoints
Format settings, Matrix : Default (H.263)
Codec ID : XVID
Codec ID/Hint : XviD
Duration : 1h 57mn
Bit rate : 46.1 Kbps
Width : 704 pixels
Height : 396 pixels
Display aspect ratio : 16:9
Frame rate : 29.970 fps
Color space : YUV
Chroma subsampling : 4:2:0
Bit depth : 8 bits
Scan type : Progressive
Compression mode : Lossy
Bits/(Pixel*Frame) : 0.006
Stream size : 38.8 MiB (3%)
Writing library : XviD 1.2.1 (UTC 2008-12-04)

Audio
ID : 1
Format : AC-3
Format/Info : Audio Coding 3
Codec ID : 2000
Duration : 1h 57mn
Bit rate mode : Constant
Bit rate : 448 Kbps
Channel(s) : 2 channels
Sampling rate : 48.0 KHz
Bit depth : 16 bits
Compression mode : Lossy
Stream size : 377 MiB (27%)
Alignment : Aligned on interleaves
 
http://leetleech.org/images/39395629066597766529.png
 
http://leetleech.org/images/08510167594245847804.png
 
http://leetleech.org/images/08510167594245847804.png
 
http://leetleech.org/images/99777477358940119124.png
 
http://leetleech.org/images/17580679795750951562.png